# Blender v3.2.1 OBJ File: 'cave2copy.blend'
# www.blender.org
o catwalk.001_Cube.001
v 7.473803 12.220244 -23.656534
v 7.473803 11.782317 -23.656534
v 7.473803 12.220244 -19.277266
v 7.473803 11.782317 -19.277266
v 1.923477 12.220244 -23.656534
v 1.923477 11.782317 -23.656534
v 1.923477 12.220244 -19.277266
v 1.923477 11.782317 -19.277266
vt 1.006262 -0.003802
vt -0.004263 0.999341
vt -0.004263 -0.006262
vt 1.000000 1.000000
vt -0.000000 0.875000
vt 1.000000 0.875000
vt 1.000000 -0.010804
vt 0.875000 0.989196
vt 0.875000 -0.010804
vt 1.001000 0.001961
vt 0.001000 1.001961
vt 0.001000 0.001961
vt 0.125000 0.000000
vt 0.000000 1.000000
vt 0.000000 0.000000
vt 0.000000 -0.000000
vt 1.000000 0.125000
vt -0.000000 0.125000
vt 0.998880 0.999341
vt 0.000000 1.000000
vt 1.000000 0.989196
vt 1.001000 1.001961
vt 0.125000 1.000000
vt 1.000000 0.000000
vn 0.0000 1.0000 0.0000
vn 0.0000 0.0000 1.0000
vn -1.0000 0.0000 0.0000
vn 0.0000 -1.0000 0.0000
vn 1.0000 0.0000 0.0000
vn 0.0000 0.0000 -1.0000
s off
f 5/1/1 3/2/1 1/3/1
f 3/4/2 8/5/2 4/6/2
f 7/7/3 6/8/3 8/9/3
f 2/10/4 8/11/4 6/12/4
f 1/13/5 4/14/5 2/15/5
f 5/16/6 2/17/6 6/18/6
f 5/1/1 7/19/1 3/2/1
f 3/4/2 7/20/2 8/5/2
f 7/7/3 5/21/3 6/8/3
f 2/10/4 4/22/4 8/11/4
f 1/13/5 3/23/5 4/14/5
f 5/16/6 1/24/6 2/17/6
