# Blender v3.2.1 OBJ File: 'cave2copy.blend'
# www.blender.org
o wood_log_Cube.004
v 4.366690 7.912630 -23.745304
v 4.442980 11.824309 -20.862762
v 4.353912 8.268651 -24.228094
v 4.430202 12.180330 -21.345552
v 4.967077 7.912630 -23.761194
v 5.043368 11.824309 -20.878653
v 4.954299 8.268651 -24.243984
v 5.030590 12.180330 -21.361443
vt 0.000000 -3.000000
vt 1.000000 4.000000
vt -0.000000 4.000000
vt 1.000000 4.000000
vt -0.000000 -3.000000
vt 1.000000 -3.000000
vt 0.000000 -3.000000
vt 1.000000 4.000000
vt -0.000000 4.000000
vt 1.000000 4.000000
vt -0.000000 -3.000000
vt 1.000000 -3.000000
vt 0.375000 0.500000
vt 0.125000 0.750000
vt 0.125000 0.500000
vt 0.875000 0.500000
vt 0.625000 0.750000
vt 0.625000 0.500000
vt 1.000000 -3.000000
vt 0.000000 4.000000
vt 1.000000 -3.000000
vt 0.000000 4.000000
vt 0.375000 0.750000
vt 0.875000 0.750000
vn -0.9996 0.0000 0.0265
vn -0.0213 0.5934 -0.8047
vn 0.9997 -0.0000 -0.0265
vn 0.0213 -0.5934 0.8047
vn -0.0157 -0.8049 -0.5932
vn 0.0157 0.8049 0.5932
vn -0.0213 0.5934 -0.8046
vn 0.9996 0.0000 -0.0265
s off
f 2/1/1 3/2/1 1/3/1
f 4/4/2 7/5/2 3/6/2
f 8/7/3 5/8/3 7/9/3
f 6/10/4 1/11/4 5/12/4
f 7/13/5 1/14/5 3/15/5
f 4/16/6 6/17/6 8/18/6
f 2/1/1 4/19/1 3/2/1
f 4/4/7 8/20/7 7/5/7
f 8/7/8 6/21/8 5/8/8
f 6/10/4 2/22/4 1/11/4
f 7/13/5 5/23/5 1/14/5
f 4/16/6 2/24/6 6/17/6
