# Blender v3.2.1 OBJ File: 'cave2copy.blend'
# www.blender.org
o Tree_Cone
v 0.000000 -1.000000 -2.000000
v 1.175570 -1.000000 -1.618034
v 1.902113 -1.000000 -0.618034
v 1.902113 -1.000000 0.618034
v 1.175570 -1.000000 1.618034
v -0.000000 -1.000000 2.000000
v -1.175571 -1.000000 1.618034
v -1.902113 -1.000000 0.618034
v -1.902113 -1.000000 -0.618034
v -1.175571 -1.000000 -1.618034
v 0.000000 1.000000 0.000000
v 0.000000 -3.000000 -0.500000
v 0.000000 -1.000000 -0.500000
v 0.293893 -3.000000 -0.404509
v 0.293893 -1.000000 -0.404509
v 0.475528 -3.000000 -0.154508
v 0.475528 -1.000000 -0.154508
v 0.475528 -3.000000 0.154509
v 0.475528 -1.000000 0.154509
v 0.293893 -3.000000 0.404509
v 0.293893 -1.000000 0.404509
v -0.000000 -3.000000 0.500000
v -0.000000 -1.000000 0.500000
v -0.293893 -3.000000 0.404508
v -0.293893 -1.000000 0.404508
v -0.475528 -3.000000 0.154509
v -0.475528 -1.000000 0.154509
v -0.475528 -3.000000 -0.154509
v -0.475528 -1.000000 -0.154509
v -0.293893 -3.000000 -0.404508
v -0.293893 -1.000000 -0.404508
v 0.000000 0.500000 -1.500000
v 0.881678 0.500000 -1.213526
v 1.426585 0.500000 -0.463525
v 1.426585 0.500000 0.463526
v 0.881678 0.500000 1.213526
v -0.000000 0.500000 1.500000
v -0.881678 0.500000 1.213525
v -1.426585 0.500000 0.463526
v -1.426585 0.500000 -0.463526
v -0.881678 0.500000 -1.213525
v 0.000000 2.500000 0.000000
v 0.000000 2.000000 -1.000000
v 0.587785 2.000000 -0.809017
v 0.951057 2.000000 -0.309017
v 0.951056 2.000000 0.309017
v 0.587785 2.000000 0.809017
v -0.000000 2.000000 1.000000
v -0.587785 2.000000 0.809017
v -0.951056 2.000000 0.309017
v -0.951056 2.000000 -0.309017
v -0.587785 2.000000 -0.809017
v 0.000000 3.500000 0.000000
vt 0.540472 0.961468
vt 0.540472 0.941194
vt 0.552389 0.957596
vt 0.559754 0.947459
vt 0.559754 0.934929
vt 0.552389 0.924792
vt 0.540472 0.920920
vt 0.528556 0.924792
vt 0.521191 0.934929
vt 0.521191 0.947459
vt 0.601991 0.934929
vt 0.563428 0.934929
vt 0.570793 0.957596
vt 0.528555 0.957596
vt 0.725095 0.471907
vt 0.718058 0.436723
vt 0.725095 0.436723
vt 0.718058 0.471907
vt 0.711021 0.436723
vt 0.711021 0.471907
vt 0.703984 0.436723
vt 0.703984 0.471907
vt 0.696947 0.436723
vt 0.696947 0.471907
vt 0.689910 0.436723
vt 0.689910 0.471907
vt 0.682873 0.436723
vt 0.682873 0.471907
vt 0.675837 0.436723
vt 0.675837 0.471907
vt 0.668800 0.436723
vt 0.672318 0.436019
vt 0.656256 0.424349
vt 0.682245 0.405467
vt 0.668800 0.471907
vt 0.661763 0.436723
vt 0.661763 0.471907
vt 0.654726 0.436723
vt 0.723565 0.413912
vt 0.691441 0.413912
vt 0.697576 0.432794
vt 0.540472 0.961468
vt 0.540472 0.941194
vt 0.552389 0.957596
vt 0.559754 0.947459
vt 0.559754 0.934929
vt 0.552389 0.924792
vt 0.540472 0.920920
vt 0.528556 0.924792
vt 0.521191 0.934929
vt 0.521191 0.947459
vt 0.601991 0.934929
vt 0.563428 0.934929
vt 0.570793 0.957596
vt 0.528555 0.957596
vt 0.540472 0.961468
vt 0.540472 0.941194
vt 0.552389 0.957596
vt 0.559754 0.947459
vt 0.559754 0.934929
vt 0.552389 0.924792
vt 0.540472 0.920920
vt 0.528556 0.924792
vt 0.521191 0.934929
vt 0.521191 0.947459
vt 0.603654 0.923704
vt 0.565091 0.923704
vt 0.572456 0.946371
vt 0.528555 0.957596
vt 0.582710 0.961468
vt 0.594626 0.957596
vt 0.601991 0.947459
vt 0.594626 0.924792
vt 0.582710 0.920920
vt 0.570793 0.924792
vt 0.563428 0.947459
vt 0.688380 0.424349
vt 0.682245 0.432794
vt 0.662391 0.432794
vt 0.656256 0.413912
vt 0.662391 0.405467
vt 0.672318 0.402242
vt 0.688380 0.413912
vt 0.654726 0.471907
vt 0.707503 0.436019
vt 0.717429 0.432794
vt 0.723565 0.424349
vt 0.717429 0.405467
vt 0.707503 0.402242
vt 0.697576 0.405467
vt 0.691441 0.424349
vt 0.582710 0.961468
vt 0.594626 0.957596
vt 0.601991 0.947459
vt 0.594626 0.924792
vt 0.582710 0.920920
vt 0.570793 0.924792
vt 0.563428 0.947459
vt 0.584373 0.950243
vt 0.596289 0.946371
vt 0.603654 0.936234
vt 0.596289 0.913567
vt 0.584373 0.909695
vt 0.572456 0.913567
vt 0.565091 0.936234
vn 0.2239 0.6892 -0.6892
vn 0.5862 0.6892 -0.4259
vn 0.7246 0.6892 0.0000
vn 0.5862 0.6892 0.4259
vn 0.2239 0.6892 0.6892
vn -0.2239 0.6892 0.6892
vn -0.5862 0.6892 0.4259
vn -0.7246 0.6892 0.0000
vn 0.0000 -1.0000 -0.0000
vn -0.5862 0.6892 -0.4259
vn -0.2239 0.6892 -0.6892
vn 0.3090 0.0000 -0.9511
vn 0.8090 0.0000 -0.5878
vn 1.0000 0.0000 0.0000
vn 0.8090 0.0000 0.5878
vn 0.3090 0.0000 0.9511
vn -0.3090 0.0000 0.9511
vn -0.8090 0.0000 0.5878
vn -1.0000 0.0000 0.0000
vn 0.0000 1.0000 0.0000
vn -0.8090 0.0000 -0.5878
vn -0.3090 0.0000 -0.9511
vn 0.2516 0.5807 -0.7743
vn 0.6586 0.5807 -0.4785
vn 0.8141 0.5807 0.0000
vn 0.6586 0.5807 0.4785
vn 0.2516 0.5807 0.7743
vn -0.2516 0.5807 0.7743
vn -0.6586 0.5807 0.4785
vn -0.8141 0.5807 0.0000
vn -0.6586 0.5807 -0.4785
vn -0.2516 0.5807 -0.7743
vn 0.2610 0.5355 -0.8032
vn 0.6833 0.5355 -0.4964
vn 0.8446 0.5355 0.0000
vn 0.6833 0.5355 0.4964
vn 0.2610 0.5355 0.8032
vn -0.2610 0.5355 0.8032
vn -0.6833 0.5355 0.4964
vn -0.8446 0.5355 0.0000
vn -0.6833 0.5355 -0.4964
vn -0.2610 0.5355 -0.8032
s off
f 1/1/1 11/2/1 2/3/1
f 2/3/2 11/2/2 3/4/2
f 3/4/3 11/2/3 4/5/3
f 4/5/4 11/2/4 5/6/4
f 5/6/5 11/2/5 6/7/5
f 6/7/6 11/2/6 7/8/6
f 7/8/7 11/2/7 8/9/7
f 8/9/8 11/2/8 9/10/8
f 4/11/9 8/12/9 10/13/9
f 9/10/10 11/2/10 10/14/10
f 10/14/11 11/2/11 1/1/11
f 13/15/12 14/16/12 12/17/12
f 15/18/13 16/19/13 14/16/13
f 17/20/14 18/21/14 16/19/14
f 19/22/15 20/23/15 18/21/15
f 21/24/16 22/25/16 20/23/16
f 23/26/17 24/27/17 22/25/17
f 25/28/18 26/29/18 24/27/18
f 27/30/19 28/31/19 26/29/19
f 13/32/20 29/33/20 21/34/20
f 29/35/21 30/36/21 28/31/21
f 31/37/22 12/38/22 30/36/22
f 18/39/9 26/40/9 30/41/9
f 32/42/23 42/43/23 33/44/23
f 33/44/24 42/43/24 34/45/24
f 34/45/25 42/43/25 35/46/25
f 35/46/26 42/43/26 36/47/26
f 36/47/27 42/43/27 37/48/27
f 37/48/28 42/43/28 38/49/28
f 38/49/29 42/43/29 39/50/29
f 39/50/30 42/43/30 40/51/30
f 35/52/9 39/53/9 41/54/9
f 40/51/31 42/43/31 41/55/31
f 41/55/32 42/43/32 32/42/32
f 43/56/33 53/57/33 44/58/33
f 44/58/34 53/57/34 45/59/34
f 45/59/35 53/57/35 46/60/35
f 46/60/36 53/57/36 47/61/36
f 47/61/37 53/57/37 48/62/37
f 48/62/38 53/57/38 49/63/38
f 49/63/39 53/57/39 50/64/39
f 50/64/40 53/57/40 51/65/40
f 46/66/9 50/67/9 52/68/9
f 51/65/41 53/57/41 52/69/41
f 52/69/42 53/57/42 43/56/42
f 10/13/9 1/70/9 2/71/9
f 2/71/9 3/72/9 10/13/9
f 3/72/9 4/11/9 10/13/9
f 4/11/9 5/73/9 6/74/9
f 6/74/9 7/75/9 8/12/9
f 8/12/9 9/76/9 10/13/9
f 4/11/9 6/74/9 8/12/9
f 13/15/12 15/18/12 14/16/12
f 15/18/13 17/20/13 16/19/13
f 17/20/14 19/22/14 18/21/14
f 19/22/15 21/24/15 20/23/15
f 21/24/16 23/26/16 22/25/16
f 23/26/17 25/28/17 24/27/17
f 25/28/18 27/30/18 26/29/18
f 27/30/19 29/35/19 28/31/19
f 17/77/20 15/78/20 13/32/20
f 13/32/20 31/79/20 29/33/20
f 29/33/20 27/80/20 25/81/20
f 25/81/20 23/82/20 29/33/20
f 23/82/20 21/34/20 29/33/20
f 21/34/20 19/83/20 17/77/20
f 17/77/20 13/32/20 21/34/20
f 29/35/21 31/37/21 30/36/21
f 31/37/22 13/84/22 12/38/22
f 30/41/9 12/85/9 14/86/9
f 14/86/9 16/87/9 30/41/9
f 16/87/9 18/39/9 30/41/9
f 18/39/9 20/88/9 22/89/9
f 22/89/9 24/90/9 26/40/9
f 26/40/9 28/91/9 30/41/9
f 18/39/9 22/89/9 26/40/9
f 41/54/9 32/92/9 35/52/9
f 32/92/9 33/93/9 35/52/9
f 33/93/9 34/94/9 35/52/9
f 35/52/9 36/95/9 37/96/9
f 37/96/9 38/97/9 39/53/9
f 39/53/9 40/98/9 41/54/9
f 35/52/9 37/96/9 39/53/9
f 52/68/9 43/99/9 44/100/9
f 44/100/9 45/101/9 52/68/9
f 45/101/9 46/66/9 52/68/9
f 46/66/9 47/102/9 48/103/9
f 48/103/9 49/104/9 50/67/9
f 50/67/9 51/105/9 52/68/9
f 46/66/9 48/103/9 50/67/9
