# Blender v3.2.1 OBJ File: 'cave2copy.blend'
# www.blender.org
o catwalk_v2_Cube.024
v -383.970947 -28.072870 -29.022743
v -383.705414 -29.385279 -28.966381
v -372.541046 -25.481113 -22.522747
v -372.275482 -26.793520 -22.466385
v -392.176483 -29.095915 -14.185809
v -391.910919 -30.408321 -14.129447
v -380.746552 -26.504156 -7.685815
v -380.481018 -27.816565 -7.629453
vt 1.006262 -0.003802
vt -0.004263 0.999341
vt -0.004263 -0.006262
vt 1.000000 1.000000
vt -0.000000 0.875000
vt 1.000000 0.875000
vt 1.000000 -0.010804
vt 0.875000 0.989196
vt 0.875000 -0.010804
vt 1.001000 0.001961
vt 0.001000 1.001961
vt 0.001000 0.001961
vt 0.000000 0.000000
vt 0.125000 1.000000
vt 0.000000 1.000000
vt 0.000000 -0.000000
vt 1.000000 0.125000
vt -0.000000 0.125000
vt 0.998880 0.999341
vt 0.000000 1.000000
vt 1.000000 0.989196
vt 1.001000 1.001961
vt 0.125000 0.000000
vt 1.000000 0.000000
vn -0.1981 0.9793 -0.0421
vn 0.8529 0.1934 0.4850
vn -0.4831 -0.0602 0.8735
vn 0.1981 -0.9793 0.0421
vn 0.4831 0.0602 -0.8735
vn -0.8529 -0.1934 -0.4850
s off
f 5/1/1 3/2/1 1/3/1
f 3/4/2 8/5/2 4/6/2
f 7/7/3 6/8/3 8/9/3
f 2/10/4 8/11/4 6/12/4
f 2/13/5 3/14/5 4/15/5
f 5/16/6 2/17/6 6/18/6
f 5/1/1 7/19/1 3/2/1
f 3/4/2 7/20/2 8/5/2
f 7/7/3 5/21/3 6/8/3
f 2/10/4 4/22/4 8/11/4
f 2/13/5 1/23/5 3/14/5
f 5/16/6 1/24/6 2/17/6
