# Blender v3.2.1 OBJ File: 'cave2copy.blend'
# www.blender.org
o diamond.002_Sphere.002
v -459.848907 -145.484558 46.516678
v -459.236542 -145.484558 46.770329
v -459.030701 -145.790375 46.564495
v -459.848907 -146.984558 47.382702
v -458.982880 -145.484558 47.382702
v -458.691803 -145.790375 47.382702
v -459.236542 -145.484558 47.995075
v -459.030701 -145.790375 48.200909
v -459.848907 -145.484558 48.248726
v -459.848907 -145.790375 48.539818
v -459.848907 -145.484558 47.382702
v -460.461273 -145.484558 47.995075
v -460.667114 -145.790375 48.200909
v -460.714935 -145.484558 47.382702
v -461.006012 -145.790375 47.382702
v -460.461273 -145.484558 46.770329
v -460.667114 -145.790375 46.564495
v -459.848907 -145.790375 46.225586
vt 0.575437 0.911678
vt 0.579397 0.932797
vt 0.571478 0.932797
vt 0.571478 0.953915
vt 0.579397 0.953915
vt 0.575437 0.975034
vt 0.567518 0.911678
vt 0.563558 0.932797
vt 0.567518 0.975034
vt 0.563558 0.953915
vt 0.559598 0.911678
vt 0.555639 0.932797
vt 0.559598 0.975034
vt 0.555639 0.953915
vt 0.551679 0.911678
vt 0.547719 0.932797
vt 0.551679 0.975034
vt 0.547719 0.953915
vt 0.543759 0.911678
vt 0.539799 0.932797
vt 0.543759 0.975034
vt 0.539799 0.953915
vt 0.535840 0.911678
vt 0.531880 0.932797
vt 0.535840 0.975034
vt 0.531880 0.953915
vt 0.591277 0.911678
vt 0.595236 0.932797
vt 0.587317 0.932797
vt 0.587317 0.953915
vt 0.595236 0.953915
vt 0.591277 0.975034
vt 0.583357 0.911678
vt 0.583357 0.975034
vn 0.2851 -0.6670 -0.6884
vn 0.2874 0.6604 -0.6938
vn 0.0000 1.0000 0.0000
vn 0.6884 -0.6670 -0.2851
vn 0.6937 0.6604 -0.2873
vn 0.6884 -0.6670 0.2851
vn 0.6938 0.6603 0.2874
vn 0.2851 -0.6670 0.6884
vn 0.2874 0.6604 0.6938
vn -0.2851 -0.6670 0.6884
vn -0.2874 0.6603 0.6938
vn -0.6884 -0.6670 0.2851
vn -0.6937 0.6604 0.2873
vn -0.6884 -0.6670 -0.2851
vn -0.6938 0.6604 -0.2874
vn -0.2851 -0.6670 -0.6884
vn -0.2874 0.6604 -0.6938
vn 0.6938 0.6603 -0.2874
vn 0.6938 0.6604 0.2874
vn 0.2874 0.6604 0.6937
vn -0.2874 0.6604 0.6937
vn -0.6938 0.6603 0.2874
vn -0.6938 0.6603 -0.2874
s off
f 4/1/1 18/2/1 3/3/1
f 18/2/2 2/4/2 3/3/2
f 1/5/3 11/6/3 2/4/3
f 4/7/4 3/3/4 6/8/4
f 2/4/5 6/8/5 3/3/5
f 2/4/3 11/9/3 5/10/3
f 4/11/6 6/8/6 8/12/6
f 5/10/7 8/12/7 6/8/7
f 5/10/3 11/13/3 7/14/3
f 4/15/8 8/12/8 10/16/8
f 7/14/9 10/16/9 8/12/9
f 7/14/3 11/17/3 9/18/3
f 4/19/10 10/16/10 13/20/10
f 9/18/11 13/20/11 10/16/11
f 9/18/3 11/21/3 12/22/3
f 4/23/12 13/20/12 15/24/12
f 12/22/13 15/24/13 13/20/13
f 12/22/3 11/25/3 14/26/3
f 4/27/14 15/28/14 17/29/14
f 15/28/15 16/30/15 17/29/15
f 14/31/3 11/32/3 16/30/3
f 4/33/16 17/29/16 18/2/16
f 16/30/17 18/2/17 17/29/17
f 16/30/3 11/34/3 1/5/3
f 18/2/2 1/5/2 2/4/2
f 2/4/18 5/10/18 6/8/18
f 5/10/19 7/14/19 8/12/19
f 7/14/20 9/18/20 10/16/20
f 9/18/21 12/22/21 13/20/21
f 12/22/22 14/26/22 15/24/22
f 15/28/23 14/31/23 16/30/23
f 16/30/17 1/5/17 18/2/17
