# Blender v3.2.1 OBJ File: 'cave2copy.blend'
# www.blender.org
o diamond.003_Sphere.003
v -426.885742 -343.453217 124.441826
v -426.273376 -343.453217 124.695480
v -426.067535 -343.759033 124.489647
v -426.885742 -344.953217 125.307854
v -426.019714 -343.453217 125.307854
v -425.728638 -343.759033 125.307854
v -426.273376 -343.453217 125.920227
v -426.067535 -343.759033 126.126060
v -426.885742 -343.453217 126.173882
v -426.885742 -343.759033 126.464973
v -426.885742 -343.453217 125.307854
v -427.498108 -343.453217 125.920227
v -427.703949 -343.759033 126.126060
v -427.751770 -343.453217 125.307854
v -428.042847 -343.759033 125.307854
v -427.498108 -343.453217 124.695480
v -427.703949 -343.759033 124.489647
v -426.885742 -343.759033 124.150734
vt 0.084025 0.786112
vt 0.087985 0.807231
vt 0.080065 0.807231
vt 0.080065 0.828350
vt 0.087985 0.828350
vt 0.084025 0.849468
vt 0.076106 0.786112
vt 0.072146 0.807231
vt 0.076106 0.849468
vt 0.072146 0.828350
vt 0.068186 0.786112
vt 0.064226 0.807231
vt 0.068186 0.849468
vt 0.064226 0.828350
vt 0.060267 0.786112
vt 0.056307 0.807231
vt 0.060267 0.849468
vt 0.056307 0.828350
vt 0.052347 0.786112
vt 0.048387 0.807231
vt 0.052347 0.849468
vt 0.048387 0.828350
vt 0.044427 0.786112
vt 0.040468 0.807231
vt 0.044427 0.849468
vt 0.040468 0.828350
vt 0.099864 0.786112
vt 0.103824 0.807231
vt 0.095904 0.807231
vt 0.095904 0.828350
vt 0.103824 0.828350
vt 0.099864 0.849468
vt 0.091945 0.786112
vt 0.091945 0.849468
vn 0.2851 -0.6670 -0.6884
vn 0.2874 0.6605 -0.6936
vn 0.0000 1.0000 0.0000
vn 0.6883 -0.6670 -0.2851
vn 0.6937 0.6604 -0.2873
vn 0.6883 -0.6670 0.2851
vn 0.6937 0.6604 0.2873
vn 0.2851 -0.6670 0.6884
vn 0.2873 0.6605 0.6937
vn -0.2851 -0.6670 0.6883
vn -0.2874 0.6604 0.6937
vn -0.6884 -0.6670 0.2851
vn -0.6937 0.6604 0.2873
vn -0.6884 -0.6670 -0.2851
vn -0.6937 0.6604 -0.2873
vn -0.2851 -0.6670 -0.6883
vn -0.2874 0.6604 -0.6937
vn 0.2874 0.6603 -0.6939
vn 0.6938 0.6603 -0.2874
vn 0.6938 0.6603 0.2874
vn 0.2874 0.6603 0.6939
vn -0.2874 0.6603 0.6938
vn -0.6938 0.6603 0.2874
vn -0.6938 0.6603 -0.2874
vn -0.2874 0.6603 -0.6939
s off
f 4/1/1 18/2/1 3/3/1
f 18/2/2 2/4/2 3/3/2
f 1/5/3 11/6/3 2/4/3
f 4/7/4 3/3/4 6/8/4
f 2/4/5 6/8/5 3/3/5
f 2/4/3 11/9/3 5/10/3
f 4/11/6 6/8/6 8/12/6
f 5/10/7 8/12/7 6/8/7
f 5/10/3 11/13/3 7/14/3
f 4/15/8 8/12/8 10/16/8
f 7/14/9 10/16/9 8/12/9
f 7/14/3 11/17/3 9/18/3
f 4/19/10 10/16/10 13/20/10
f 9/18/11 13/20/11 10/16/11
f 9/18/3 11/21/3 12/22/3
f 4/23/12 13/20/12 15/24/12
f 12/22/13 15/24/13 13/20/13
f 12/22/3 11/25/3 14/26/3
f 4/27/14 15/28/14 17/29/14
f 15/28/15 16/30/15 17/29/15
f 14/31/3 11/32/3 16/30/3
f 4/33/16 17/29/16 18/2/16
f 16/30/17 18/2/17 17/29/17
f 16/30/3 11/34/3 1/5/3
f 18/2/18 1/5/18 2/4/18
f 2/4/19 5/10/19 6/8/19
f 5/10/20 7/14/20 8/12/20
f 7/14/21 9/18/21 10/16/21
f 9/18/22 12/22/22 13/20/22
f 12/22/23 14/26/23 15/24/23
f 15/28/24 14/31/24 16/30/24
f 16/30/25 1/5/25 18/2/25
